<svg width="86" height="20" viewBox="0 0 86 20" fill="none" xmlns="http://www.w3.org/2000/svg">
<g id="Group 4">
<path id="Vector" d="M71.536 19.8857C71.6978 19.9698 71.8794 20.0083 72.0614 19.997C72.2434 19.9858 72.4189 19.9251 72.569 19.8217L85.569 10.8217C85.7018 10.7296 85.8104 10.6068 85.8854 10.4636C85.9603 10.3205 85.9995 10.1613 85.9995 9.99966C85.9995 9.83806 85.9603 9.67886 85.8854 9.53571C85.8104 9.39255 85.7018 9.26969 85.569 9.17766L72.569 0.177663C72.419 0.0738554 72.2434 0.0130678 72.0613 0.00188176C71.8792 -0.00930423 71.6975 0.0295378 71.5359 0.114202C71.3743 0.198866 71.239 0.326126 71.1445 0.482203C71.05 0.638279 71.0001 0.817225 71 0.999663V18.9997C71 19.1822 71.0499 19.3613 71.1444 19.5174C71.2389 19.6736 71.3743 19.801 71.536 19.8857Z" fill="white"/>
<path id="Vector_2" d="M0.428977 10.8227L13.429 19.8227C13.579 19.9265 13.7546 19.9873 13.9367 19.9984C14.1188 20.0096 14.3004 19.9708 14.462 19.8861C14.6237 19.8015 14.759 19.6742 14.8535 19.5181C14.9479 19.362 14.9979 19.1831 14.998 19.0007V1.00066C14.9981 0.81814 14.9483 0.639064 14.8539 0.482844C14.7595 0.326624 14.6241 0.199219 14.4625 0.114434C14.3009 0.0296497 14.1191 -0.0092792 13.9369 0.00186647C13.7547 0.0130121 13.5791 0.0738072 13.429 0.177663L0.428977 9.17766C0.296536 9.27009 0.188374 9.39314 0.113688 9.53634C0.0390014 9.67954 0 9.83866 0 10.0002C0 10.1617 0.0390014 10.3208 0.113688 10.464C0.188374 10.6072 0.296536 10.7302 0.428977 10.8227Z" fill="white"/>
</g>
</svg>
